<mxfile host="app.diagrams.net" modified="2021-04-02T08:32:38.319Z" agent="5.0 (Windows NT 10.0; Win64; x64) AppleWebKit/537.36 (KHTML, like Gecko) Chrome/89.0.4389.90 Safari/537.36" etag="hgTNyY6OKWkY7iyKsezf" version="14.5.4" type="github">
  <diagram name="Page-1" id="c7558073-3199-34d8-9f00-42111426c3f3">
    <mxGraphModel dx="1662" dy="738" grid="1" gridSize="10" guides="1" tooltips="1" connect="1" arrows="1" fold="1" page="1" pageScale="1" pageWidth="826" pageHeight="1169" background="#ffffff" math="0" shadow="0">
      <root>
        <mxCell id="0" />
        <mxCell id="1" parent="0" />
        <mxCell id="Zul9WXFkH97t_Ixqo4yF-104" value="处理完成" style="rhombus;whiteSpace=wrap;html=1;fillColor=#FFFFCC" parent="1" vertex="1">
          <mxGeometry x="243" y="360" width="99" height="100" as="geometry" />
        </mxCell>
        <mxCell id="2" value="&lt;p style=&quot;margin: 0px ; margin-top: 4px ; text-align: center ; text-decoration: underline&quot;&gt;&lt;strong&gt;&lt;font style=&quot;font-size: 18px&quot;&gt;3.处理申请&lt;/font&gt;&lt;/strong&gt;&lt;br&gt;&lt;/p&gt;&lt;p style=&quot;margin: 0px ; margin-left: 8px&quot;&gt;内部确认一个价格&lt;/p&gt;&lt;p style=&quot;margin: 0px ; margin-left: 8px&quot;&gt;&lt;br&gt;&lt;/p&gt;&lt;p style=&quot;margin: 0px ; margin-left: 8px&quot;&gt;&lt;br&gt;&lt;/p&gt;" style="verticalAlign=middle;align=center;overflow=fill;fontSize=12;fontFamily=Helvetica;html=1;rounded=1;fontStyle=1;strokeWidth=3;fillColor=#E6FFCC" parent="1" vertex="1">
          <mxGeometry x="236" y="226" width="110" height="54" as="geometry" />
        </mxCell>
        <mxCell id="3" value="2.后台收到Email申请" style="whiteSpace=wrap;align=center;verticalAlign=middle;fontStyle=1;strokeWidth=3;fillColor=#FFFFCC" parent="1" vertex="1">
          <mxGeometry x="246" y="80" width="90" height="60" as="geometry" />
        </mxCell>
        <mxCell id="4" value="4.插件列表、价格表、文档、程序等" style="whiteSpace=wrap;align=center;verticalAlign=middle;fontStyle=1;strokeWidth=3;fillColor=#FFFFCC" parent="1" vertex="1">
          <mxGeometry x="30" y="226" width="110" height="54" as="geometry" />
        </mxCell>
        <mxCell id="36" value="" style="edgeStyle=none;noEdgeStyle=1;strokeColor=#990000;strokeWidth=2" parent="1" edge="1">
          <mxGeometry width="100" height="100" relative="1" as="geometry">
            <mxPoint x="283" y="140" as="sourcePoint" />
            <mxPoint x="283" y="220" as="targetPoint" />
          </mxGeometry>
        </mxCell>
        <mxCell id="37" value="" style="edgeStyle=none;noEdgeStyle=1;strokeColor=#990000;strokeWidth=2" parent="1" source="4" target="2" edge="1">
          <mxGeometry width="100" height="100" relative="1" as="geometry">
            <mxPoint x="280" y="216" as="sourcePoint" />
            <mxPoint x="380" y="116" as="targetPoint" />
          </mxGeometry>
        </mxCell>
        <mxCell id="Zul9WXFkH97t_Ixqo4yF-101" value="&lt;span style=&quot;color: rgb(0 , 0 , 0) ; font-family: &amp;#34;helvetica&amp;#34; ; font-size: 12px ; font-style: normal ; font-weight: 700 ; letter-spacing: normal ; text-align: center ; text-indent: 0px ; text-transform: none ; word-spacing: 0px ; background-color: rgb(248 , 249 , 250) ; display: inline ; float: none&quot;&gt;4.1更新维护&lt;/span&gt;" style="text;whiteSpace=wrap;html=1;" parent="1" vertex="1">
          <mxGeometry x="155" y="220" width="70" height="30" as="geometry" />
        </mxCell>
        <mxCell id="Zul9WXFkH97t_Ixqo4yF-103" value="" style="edgeStyle=none;noEdgeStyle=1;strokeColor=#990000;strokeWidth=2;exitX=0.5;exitY=1;exitDx=0;exitDy=0;" parent="1" source="2" edge="1">
          <mxGeometry width="100" height="100" relative="1" as="geometry">
            <mxPoint x="293" y="296" as="sourcePoint" />
            <mxPoint x="293" y="360" as="targetPoint" />
          </mxGeometry>
        </mxCell>
        <mxCell id="Zul9WXFkH97t_Ixqo4yF-106" style="edgeStyle=none;noEdgeStyle=1;strokeColor=#990000;strokeWidth=2" parent="1" source="Zul9WXFkH97t_Ixqo4yF-104" edge="1">
          <mxGeometry relative="1" as="geometry">
            <mxPoint x="293" y="530" as="targetPoint" />
          </mxGeometry>
        </mxCell>
        <mxCell id="Zul9WXFkH97t_Ixqo4yF-110" style="edgeStyle=none;noEdgeStyle=1;strokeColor=#990000;strokeWidth=2;" parent="1" source="Zul9WXFkH97t_Ixqo4yF-104" edge="1">
          <mxGeometry relative="1" as="geometry">
            <mxPoint x="350" y="250" as="targetPoint" />
            <Array as="points">
              <mxPoint x="520" y="410" />
              <mxPoint x="520" y="250" />
            </Array>
          </mxGeometry>
        </mxCell>
        <mxCell id="Zul9WXFkH97t_Ixqo4yF-107" value="发放奖励" style="whiteSpace=wrap;align=center;verticalAlign=middle;fontStyle=1;strokeWidth=3;fillColor=#FFFFCC" parent="1" vertex="1">
          <mxGeometry x="240" y="530" width="97.5" height="50" as="geometry" />
        </mxCell>
        <mxCell id="Zul9WXFkH97t_Ixqo4yF-113" value="" style="edgeStyle=none;noEdgeStyle=1;strokeColor=#990000;strokeWidth=2" parent="1" edge="1">
          <mxGeometry width="100" height="100" relative="1" as="geometry">
            <mxPoint x="298" y="218" as="sourcePoint" />
            <mxPoint x="298" y="138" as="targetPoint" />
          </mxGeometry>
        </mxCell>
        <mxCell id="Zul9WXFkH97t_Ixqo4yF-114" value="财务确认金额" style="whiteSpace=wrap;align=center;verticalAlign=middle;fontStyle=1;strokeWidth=3;fillColor=#FFFFCC" parent="1" vertex="1">
          <mxGeometry x="40" y="535" width="90" height="50" as="geometry" />
        </mxCell>
        <mxCell id="Zul9WXFkH97t_Ixqo4yF-115" value="" style="edgeStyle=none;noEdgeStyle=1;strokeColor=#990000;strokeWidth=2" parent="1" edge="1">
          <mxGeometry width="100" height="100" relative="1" as="geometry">
            <mxPoint x="137" y="551" as="sourcePoint" />
            <mxPoint x="236" y="551" as="targetPoint" />
          </mxGeometry>
        </mxCell>
        <mxCell id="Zul9WXFkH97t_Ixqo4yF-116" value="&lt;span style=&quot;color: rgb(0 , 0 , 0) ; font-family: &amp;#34;helvetica&amp;#34; ; font-size: 12px ; font-style: normal ; font-weight: 700 ; letter-spacing: normal ; text-align: center ; text-indent: 0px ; text-transform: none ; word-spacing: 0px ; background-color: rgb(248 , 249 , 250) ; display: inline ; float: none&quot;&gt;发放&lt;/span&gt;" style="text;whiteSpace=wrap;html=1;" parent="1" vertex="1">
          <mxGeometry x="155" y="515" width="60" height="20" as="geometry" />
        </mxCell>
        <mxCell id="Zul9WXFkH97t_Ixqo4yF-117" value="" style="edgeStyle=none;noEdgeStyle=1;strokeColor=#990000;strokeWidth=2;exitX=0;exitY=0.75;exitDx=0;exitDy=0;" parent="1" edge="1">
          <mxGeometry width="100" height="100" relative="1" as="geometry">
            <mxPoint x="236" y="568.5" as="sourcePoint" />
            <mxPoint x="132" y="568" as="targetPoint" />
          </mxGeometry>
        </mxCell>
        <mxCell id="Zul9WXFkH97t_Ixqo4yF-118" value="&lt;span style=&quot;color: rgb(0 , 0 , 0) ; font-family: &amp;#34;helvetica&amp;#34; ; font-size: 12px ; font-style: normal ; font-weight: 700 ; letter-spacing: normal ; text-align: center ; text-indent: 0px ; text-transform: none ; word-spacing: 0px ; background-color: rgb(248 , 249 , 250) ; display: inline ; float: none&quot;&gt;确认已发放&lt;/span&gt;" style="text;whiteSpace=wrap;html=1;" parent="1" vertex="1">
          <mxGeometry x="150" y="580" width="70" height="30" as="geometry" />
        </mxCell>
        <mxCell id="Zul9WXFkH97t_Ixqo4yF-119" style="edgeStyle=none;noEdgeStyle=1;strokeColor=#990000;strokeWidth=2" parent="1" edge="1">
          <mxGeometry relative="1" as="geometry">
            <mxPoint x="294" y="649" as="targetPoint" />
            <mxPoint x="293.707460184409" y="578.7904442581726" as="sourcePoint" />
          </mxGeometry>
        </mxCell>
        <mxCell id="Zul9WXFkH97t_Ixqo4yF-121" value="&lt;p style=&quot;margin: 0px ; margin-left: 8px&quot;&gt;&lt;span style=&quot;font-size: 18px&quot;&gt;&lt;u&gt;完成&lt;/u&gt;&lt;/span&gt;&lt;/p&gt;&lt;p style=&quot;margin: 0px ; margin-left: 8px&quot;&gt;&lt;br&gt;&lt;/p&gt;" style="verticalAlign=middle;align=center;overflow=fill;fontSize=12;fontFamily=Helvetica;html=1;rounded=1;fontStyle=1;strokeWidth=3;fillColor=#E6FFCC" parent="1" vertex="1">
          <mxGeometry x="233.75" y="650" width="110" height="30" as="geometry" />
        </mxCell>
        <mxCell id="f9crpk3S28r5Hp-y6S1A-57" value="1.维护平台" style="whiteSpace=wrap;align=center;verticalAlign=middle;fontStyle=1;strokeWidth=3;fillColor=#FFFFCC" parent="1" vertex="1">
          <mxGeometry x="47" y="80" width="90" height="60" as="geometry" />
        </mxCell>
        <mxCell id="f9crpk3S28r5Hp-y6S1A-58" value="&lt;span style=&quot;color: rgb(0 , 0 , 0) ; font-family: &amp;#34;helvetica&amp;#34; ; font-size: 12px ; font-style: normal ; font-weight: 700 ; letter-spacing: normal ; text-align: center ; text-indent: 0px ; text-transform: none ; word-spacing: 0px ; background-color: rgb(248 , 249 , 250) ; display: inline ; float: none&quot;&gt;1.1更新维护&lt;/span&gt;" style="text;whiteSpace=wrap;html=1;" parent="1" vertex="1">
          <mxGeometry x="160" y="80" width="70" height="30" as="geometry" />
        </mxCell>
        <mxCell id="f9crpk3S28r5Hp-y6S1A-59" value="" style="edgeStyle=none;noEdgeStyle=1;strokeColor=#990000;strokeWidth=2;entryX=0;entryY=0.5;entryDx=0;entryDy=0;" parent="1" target="3" edge="1">
          <mxGeometry width="100" height="100" relative="1" as="geometry">
            <mxPoint x="137.75" y="110" as="sourcePoint" />
            <mxPoint x="233.75" y="110" as="targetPoint" />
          </mxGeometry>
        </mxCell>
        <mxCell id="f9crpk3S28r5Hp-y6S1A-60" value="2.2插件列表文档、&#xa;程序、价格等" style="text;spacingTop=-5;align=center" parent="1" vertex="1">
          <mxGeometry x="310" y="160" width="88" height="40" as="geometry" />
        </mxCell>
        <mxCell id="f9crpk3S28r5Hp-y6S1A-61" value="2.1插件模板程序、文档&#xa;、价格等交流" style="text;spacingTop=-5;align=center" parent="1" vertex="1">
          <mxGeometry x="160" y="160" width="104" height="40" as="geometry" />
        </mxCell>
        <mxCell id="P8XCfwjQOnEJ7EozZhLO-37" style="edgeStyle=none;noEdgeStyle=1;strokeColor=#990000;strokeWidth=2;entryX=0.422;entryY=1.019;entryDx=0;entryDy=0;entryPerimeter=0;" parent="1" target="4" edge="1">
          <mxGeometry relative="1" as="geometry">
            <mxPoint x="30" y="730" as="targetPoint" />
            <Array as="points">
              <mxPoint x="280" y="490" />
              <mxPoint x="88" y="490" />
              <mxPoint x="76" y="490" />
            </Array>
            <mxPoint x="290" y="490" as="sourcePoint" />
          </mxGeometry>
        </mxCell>
        <mxCell id="P8XCfwjQOnEJ7EozZhLO-38" value="&lt;span style=&quot;color: rgb(0, 0, 0); font-family: helvetica; font-size: 12px; font-style: normal; font-weight: 700; letter-spacing: normal; text-align: center; text-indent: 0px; text-transform: none; word-spacing: 0px; background-color: rgb(248, 249, 250); display: inline; float: none;&quot;&gt;更新维护&lt;/span&gt;" style="text;whiteSpace=wrap;html=1;" parent="1" vertex="1">
          <mxGeometry x="120" y="450" width="70" height="30" as="geometry" />
        </mxCell>
        <mxCell id="78_HajXi0HC5W1SUwwJ2-37" value="3.处理完成" style="rhombus;whiteSpace=wrap;html=1;fillColor=#FFFFCC" vertex="1" parent="1">
          <mxGeometry x="240" y="360" width="102" height="100" as="geometry" />
        </mxCell>
        <mxCell id="78_HajXi0HC5W1SUwwJ2-41" value="&lt;div style=&quot;text-align: center&quot;&gt;&lt;span&gt;&lt;font face=&quot;helvetica&quot;&gt;&lt;b&gt;3.1符合要求&lt;/b&gt;&lt;/font&gt;&lt;/span&gt;&lt;/div&gt;" style="text;whiteSpace=wrap;html=1;" vertex="1" parent="1">
          <mxGeometry x="300" y="470" width="90" height="30" as="geometry" />
        </mxCell>
        <mxCell id="78_HajXi0HC5W1SUwwJ2-42" style="edgeStyle=none;noEdgeStyle=1;strokeColor=#990000;strokeWidth=2;exitX=0;exitY=0.5;exitDx=0;exitDy=0;" edge="1" parent="1" source="78_HajXi0HC5W1SUwwJ2-37">
          <mxGeometry relative="1" as="geometry">
            <mxPoint x="230" y="270" as="targetPoint" />
            <Array as="points">
              <mxPoint x="140" y="410" />
              <mxPoint x="140" y="320" />
            </Array>
            <mxPoint x="220" y="410" as="sourcePoint" />
          </mxGeometry>
        </mxCell>
        <mxCell id="78_HajXi0HC5W1SUwwJ2-43" value="&lt;div style=&quot;text-align: center&quot;&gt;&lt;span&gt;&lt;font face=&quot;helvetica&quot;&gt;&lt;b&gt;3.2部分符合要求&lt;/b&gt;&lt;/font&gt;&lt;/span&gt;&lt;/div&gt;" style="text;whiteSpace=wrap;html=1;" vertex="1" parent="1">
          <mxGeometry x="150" y="370" width="100" height="40" as="geometry" />
        </mxCell>
        <mxCell id="78_HajXi0HC5W1SUwwJ2-44" value="&lt;div style=&quot;text-align: center&quot;&gt;&lt;span&gt;&lt;font face=&quot;helvetica&quot;&gt;&lt;b&gt;3.3完全不符合要求&lt;/b&gt;&lt;/font&gt;&lt;/span&gt;&lt;/div&gt;" style="text;whiteSpace=wrap;html=1;" vertex="1" parent="1">
          <mxGeometry x="369" y="380" width="110" height="30" as="geometry" />
        </mxCell>
      </root>
    </mxGraphModel>
  </diagram>
</mxfile>
